# xmcd CD database file
#
# Track frame offsets:
#	150
#	18807
#	43992
#	56820
#	67942
#	79482
#	96425
#	111947
#	155912
#	174402
#	192345
#	205195
#	219765
#	236847
#	254937
#	270037
#
# Disc length: 3863 seconds
#
# Revision: 0
# Processed by: cddbd v1.5.1PL0 Copyright (c) Steve Scherf et al.
# Submitted via: CDex 1.51
#
DISCID=ea0f1510
DTITLE=ピエール・ポルト - ダブル・デラックス　DISC-2
DYEAR=1990
DGENRE=Easy Listening
TTITLE0=モン・ピアノ・アパッショナート
TTITLE1=アルゼンチンよ泣かないで〜「エピータ」より
TTITLE2=彼と彼女のソネット
TTITLE3=詩人の魂
TTITLE4=ムーラン・ルージュの歌
TTITLE5=行かないで
TTITLE6=フライデーナイト・ファンタジー（ピアノ・バージョン）
TTITLE7=花束
TTITLE8=華麗なる関係
TTITLE9=百万本のバラ
TTITLE10=パリの空の下
TTITLE11=映画のあとは
TTITLE12=谷間に三つの鐘が鳴る
TTITLE13=夜は恋人
TTITLE14=群衆
TTITLE15=海辺のピアノ
EXTD=YEAR: 1990
EXTT0=
EXTT1=
EXTT2=
EXTT3=
EXTT4=
EXTT5=
EXTT6=
EXTT7=
EXTT8=
EXTT9=
EXTT10=
EXTT11=
EXTT12=
EXTT13=
EXTT14=
EXTT15=
PLAYORDER=
